<svg width="20" height="17" viewBox="0 0 20 17" fill="none" xmlns="http://www.w3.org/2000/svg">
<path d="M0.375 1.53125C0.375 0.972656 0.804688 0.5 1.40625 0.5H18.5938C19.1523 0.5 19.625 0.972656 19.625 1.53125C19.625 2.13281 19.1523 2.5625 18.5938 2.5625H1.40625C0.804688 2.5625 0.375 2.13281 0.375 1.53125ZM0.375 8.40625C0.375 7.84766 0.804688 7.375 1.40625 7.375H18.5938C19.1523 7.375 19.625 7.84766 19.625 8.40625C19.625 9.00781 19.1523 9.4375 18.5938 9.4375H1.40625C0.804688 9.4375 0.375 9.00781 0.375 8.40625ZM19.625 15.2812C19.625 15.8828 19.1523 16.3125 18.5938 16.3125H1.40625C0.804688 16.3125 0.375 15.8828 0.375 15.2812C0.375 14.7227 0.804688 14.25 1.40625 14.25H18.5938C19.1523 14.25 19.625 14.7227 19.625 15.2812Z" fill="black" fill-opacity="0.45"/>
</svg>
