<svg width="22" height="22" viewBox="0 0 22 22" fill="currentColor" xmlns="http://www.w3.org/2000/svg">
<path d="M5.5 7C5.5 7.90625 5.96875 8.71875 6.75 9.1875C7.5 9.625 8.46875 9.625 9.25 9.1875C10 8.71875 10.5 7.90625 10.5 7C10.5 6.125 10 5.3125 9.25 4.84375C8.46875 4.40625 7.5 4.40625 6.75 4.84375C5.96875 5.3125 5.5 6.125 5.5 7ZM12 7C12 8.4375 11.2188 9.75 10 10.4688C8.75 11.1875 7.21875 11.1875 6 10.4688C4.75 9.75 4 8.4375 4 7C4 5.59375 4.75 4.28125 6 3.5625C7.21875 2.84375 8.75 2.84375 10 3.5625C11.2188 4.28125 12 5.59375 12 7ZM9.40625 14H6.5625C4.5 14 2.8125 15.5312 2.53125 17.5H13.4375C13.1562 15.5312 11.4688 14 9.40625 14ZM6.5625 12.5H8H9.40625C12.5 12.5 15 15 15 18.0938C15 18.5938 14.5625 19 14.0625 19H1.90625C1.40625 19 1 18.5938 1 18.0938C1 15 3.46875 12.5 6.5625 12.5ZM16.75 12.75V10.75H14.75C14.3125 10.75 14 10.4375 14 10C14 9.59375 14.3125 9.25 14.75 9.25H16.75V7.25C16.75 6.84375 17.0625 6.5 17.5 6.5C17.9062 6.5 18.25 6.84375 18.25 7.25V9.25H20.25C20.6562 9.25 21 9.59375 21 10C21 10.4375 20.6562 10.75 20.25 10.75H18.25V12.75C18.25 13.1875 17.9062 13.5 17.5 13.5C17.0625 13.5 16.75 13.1875 16.75 12.75Z" fill="black" fill-opacity="0.45"/>
</svg>
