<svg width="26" height="26" viewBox="0 0 26 26" fill="currentColor" xmlns="http://www.w3.org/2000/svg">
<path d="M3.375 5.53125C3.375 4.97266 3.80469 4.5 4.40625 4.5H21.5938C22.1523 4.5 22.625 4.97266 22.625 5.53125C22.625 6.13281 22.1523 6.5625 21.5938 6.5625H4.40625C3.80469 6.5625 3.375 6.13281 3.375 5.53125ZM3.375 12.4062C3.375 11.8477 3.80469 11.375 4.40625 11.375H21.5938C22.1523 11.375 22.625 11.8477 22.625 12.4062C22.625 13.0078 22.1523 13.4375 21.5938 13.4375H4.40625C3.80469 13.4375 3.375 13.0078 3.375 12.4062ZM22.625 19.2812C22.625 19.8828 22.1523 20.3125 21.5938 20.3125H4.40625C3.80469 20.3125 3.375 19.8828 3.375 19.2812C3.375 18.7227 3.80469 18.25 4.40625 18.25H21.5938C22.1523 18.25 22.625 18.7227 22.625 19.2812Z" fill="black" fill-opacity="0.45"/>
</svg>
