<svg width="22" height="22" viewBox="0 0 22 22" fill="currentColor" xmlns="http://www.w3.org/2000/svg">
<path d="M11.4688 3.1875L19.7188 10.1875C20.0312 10.4688 20.0625 10.9375 19.8125 11.25C19.5312 11.5625 19.0625 11.5938 18.75 11.3438L18 10.6875V16.5C18 17.9062 16.875 19 15.5 19H6.5C5.09375 19 4 17.9062 4 16.5V10.6875L3.21875 11.3438C2.90625 11.5938 2.4375 11.5625 2.15625 11.25C1.90625 10.9375 1.9375 10.4688 2.25 10.1875L10.5 3.1875C10.7812 2.96875 11.1875 2.96875 11.4688 3.1875ZM5.5 16.5C5.5 17.0625 5.9375 17.5 6.5 17.5H8V12.75C8 12.0625 8.53125 11.5 9.25 11.5H12.75C13.4375 11.5 14 12.0625 14 12.75V17.5H15.5C16.0312 17.5 16.5 17.0625 16.5 16.5V9.40625L11 4.75L5.5 9.40625V16.5ZM9.5 17.5H12.5V13H9.5V17.5Z" fill="black" fill-opacity="0.45"/>
</svg>
