<svg width="22" height="22" viewBox="0 0 22 22" fill="currentColor" xmlns="http://www.w3.org/2000/svg">
<path d="M7.5 6V14C7.5 14.2812 7.71875 14.5 8 14.5H14V13C14 12.4688 14.4375 12 15 12H16.5V6C16.5 5.75 16.25 5.5 16 5.5H8C7.71875 5.5 7.5 5.75 7.5 6ZM6 6C6 4.90625 6.875 4 8 4H16C17.0938 4 18 4.90625 18 6V12.1875C18 12.7188 17.7812 13.2188 17.4062 13.5938L15.5625 15.4375C15.1875 15.8125 14.6875 16 14.1562 16H8C6.875 16 6 15.125 6 14V6ZM13 18.25C13 18.6875 12.6562 19 12.25 19H7.25C4.875 19 3 17.125 3 14.75V7.75C3 7.34375 3.3125 7 3.75 7C4.15625 7 4.5 7.34375 4.5 7.75V14.75C4.5 16.2812 5.71875 17.5 7.25 17.5H12.25C12.6562 17.5 13 17.8438 13 18.25Z" fill="black" fill-opacity="0.45"/>
</svg>
