<svg width="22" height="22" viewBox="0 0 22 22" fill="none" xmlns="http://www.w3.org/2000/svg">
<path d="M11 3C11.25 3 11.5312 3.0625 11.75 3.1875L18.3125 5.96875C18.7188 6.15625 19 6.5625 19 7C19 7.46875 18.7188 7.875 18.3125 8.0625L11.75 10.8438C11.5312 10.9688 11.25 11 11 11C10.7188 11 10.4688 10.9688 10.2188 10.8438L3.65625 8.0625C3.25 7.875 3 7.46875 3 7C3 6.5625 3.25 6.15625 3.65625 5.96875L10.2188 3.1875C10.4688 3.0625 10.7188 3 11 3ZM10.8125 4.5625L5.0625 7L10.8125 9.46875C10.875 9.5 10.9375 9.5 11 9.5C11.0625 9.5 11.125 9.5 11.1562 9.46875L16.9062 7L11.1562 4.5625C11.125 4.53125 11.0625 4.5 11 4.5C10.9375 4.5 10.875 4.53125 10.8125 4.5625ZM3.65625 9.96875L4.65625 9.5625L6.5625 10.375L5.0625 11L10.8125 13.4688C10.875 13.5 10.9375 13.5 11 13.5C11.0625 13.5 11.125 13.5 11.1562 13.4688L16.9062 11L15.4375 10.375L17.3125 9.5625L18.3125 9.96875C18.7188 10.1562 19 10.5625 19 11C19 11.4688 18.7188 11.875 18.3125 12.0625L11.75 14.8438C11.5312 14.9688 11.25 15 11 15C10.7188 15 10.4688 14.9688 10.2188 14.8438L3.65625 12.0625C3.25 11.875 3 11.4688 3 11C3 10.5625 3.25 10.1562 3.65625 9.96875ZM3.65625 13.9688L4.65625 13.5625L6.5625 14.375L5.0625 15L10.8125 17.4688C10.875 17.5 10.9375 17.5 11 17.5C11.0625 17.5 11.125 17.5 11.1562 17.4688L16.9062 15L15.4375 14.375L17.3125 13.5625L18.3125 13.9688C18.7188 14.1562 19 14.5625 19 15C19 15.4688 18.7188 15.875 18.3125 16.0625L11.75 18.8438C11.5312 18.9688 11.25 19 11 19C10.7188 19 10.4688 18.9688 10.2188 18.8438L3.65625 16.0625C3.25 15.875 3 15.4688 3 15C3 14.5625 3.25 14.1562 3.65625 13.9688Z" fill="black" fill-opacity="0.45"/>
</svg>
