<svg width="22" height="22" viewBox="0 0 22 22" fill="currentColor" xmlns="http://www.w3.org/2000/svg">
<path d="M11 3C11.5312 3 12.0312 3.0625 12.5312 3.15625C12.7812 3.21875 13.2188 3.34375 13.4688 3.78125C13.5312 3.90625 13.5625 4.03125 13.5938 4.15625L13.9062 5.375C13.9375 5.53125 14.25 5.71875 14.4375 5.65625L15.625 5.3125C15.75 5.28125 15.875 5.25 16 5.25C16.5 5.25 16.8438 5.5625 17 5.75C17.6875 6.53125 18.2188 7.4375 18.5625 8.4375C18.6562 8.6875 18.75 9.125 18.4688 9.53125C18.4062 9.65625 18.3125 9.75 18.2188 9.84375L17.3438 10.7188C17.1875 10.8438 17.1875 11.1875 17.3438 11.3125L18.2188 12.1875C18.3125 12.2812 18.4062 12.375 18.4688 12.5C18.7188 12.9062 18.625 13.3438 18.5625 13.5938C18.2188 14.5938 17.6875 15.5 17 16.2812C16.8438 16.4688 16.5 16.7812 16 16.7812C15.875 16.7812 15.75 16.75 15.625 16.7188L14.4375 16.3438C14.25 16.3125 13.9375 16.4688 13.9062 16.6562L13.5938 17.875C13.5625 18 13.5312 18.125 13.4688 18.25C13.2188 18.6875 12.7812 18.8125 12.5312 18.875C12.0312 18.9688 11.5312 19 11 19C10.4688 19 9.9375 18.9688 9.4375 18.875C9.1875 18.8125 8.75 18.6875 8.5 18.25C8.4375 18.125 8.40625 18 8.375 17.875L8.0625 16.6562C8.03125 16.4688 7.71875 16.3125 7.5625 16.3438L6.375 16.7188C6.25 16.75 6.09375 16.75 5.96875 16.7812C5.46875 16.7812 5.125 16.4688 4.96875 16.2812C4.28125 15.5 3.75 14.5938 3.40625 13.5938C3.34375 13.3438 3.25 12.9062 3.5 12.4688C3.5625 12.375 3.65625 12.25 3.75 12.1562L4.65625 11.3125C4.78125 11.1875 4.78125 10.8438 4.65625 10.7188L3.75 9.84375C3.65625 9.75 3.5625 9.65625 3.5 9.53125C3.25 9.125 3.34375 8.6875 3.40625 8.4375C3.75 7.4375 4.28125 6.53125 4.96875 5.75C5.125 5.5625 5.46875 5.25 5.96875 5.25C6.09375 5.25 6.25 5.28125 6.375 5.3125L7.5625 5.65625C7.71875 5.71875 8.03125 5.53125 8.0625 5.375L8.375 4.15625C8.40625 4.03125 8.4375 3.90625 8.5 3.78125C8.75 3.34375 9.1875 3.21875 9.4375 3.15625C9.9375 3.0625 10.4688 3 11 3ZM9.8125 4.625L9.53125 5.71875C9.28125 6.71875 8.125 7.40625 7.125 7.125L6.03125 6.78125C5.53125 7.40625 5.125 8.09375 4.84375 8.84375L5.6875 9.625C6.4375 10.3438 6.4375 11.6875 5.6875 12.4062L4.84375 13.1875C5.125 13.9375 5.53125 14.625 6.03125 15.25L7.125 14.9062C8.125 14.625 9.28125 15.3125 9.53125 16.3125L9.8125 17.4062C10.5625 17.5625 11.4062 17.5625 12.1875 17.4062L12.4375 16.3125C12.6875 15.3125 13.8438 14.625 14.8438 14.9062L15.9375 15.25C16.4375 14.625 16.8438 13.9375 17.125 13.1875L16.3125 12.4062C15.5625 11.6875 15.5625 10.3438 16.3125 9.625L17.125 8.84375C16.8438 8.09375 16.4375 7.40625 15.9375 6.78125L14.8438 7.125C13.875 7.40625 12.6875 6.71875 12.4375 5.71875L12.1875 4.625C11.4062 4.46875 10.5625 4.46875 9.8125 4.625ZM9.5 11C9.5 11.5625 9.78125 12.0312 10.25 12.3125C10.6875 12.5938 11.2812 12.5938 11.75 12.3125C12.1875 12.0312 12.5 11.5625 12.5 11C12.5 10.4688 12.1875 10 11.75 9.71875C11.2812 9.4375 10.6875 9.4375 10.25 9.71875C9.78125 10 9.5 10.4688 9.5 11ZM11 14C9.90625 14 8.9375 13.4375 8.375 12.5C7.84375 11.5938 7.84375 10.4375 8.375 9.5C8.9375 8.59375 9.90625 8 11 8C12.0625 8 13.0312 8.59375 13.5938 9.5C14.125 10.4375 14.125 11.5938 13.5938 12.5C13.0312 13.4375 12.0625 14 11 14Z" fill="black" fill-opacity="0.45"/>
</svg>
