<svg width="16" height="16" viewBox="0 0 16 16" fill="none" xmlns="http://www.w3.org/2000/svg">
<path d="M6.52344 13.4922L6.47656 13.4219L2.375 9.625C1.64844 8.94531 1.25 8.00781 1.25 7.02344V6.95312C1.25 5.3125 2.42188 3.88281 4.03906 3.57812C4.95312 3.39062 5.89062 3.60156 6.66406 4.14062C6.875 4.28125 7.0625 4.46875 7.25 4.65625C7.34375 4.5625 7.4375 4.44531 7.55469 4.35156C7.64844 4.28125 7.74219 4.21094 7.83594 4.14062C8.58594 3.60156 9.52344 3.39062 10.4375 3.57812C12.0781 3.88281 13.25 5.3125 13.25 6.95312V7.02344C13.25 7.16406 13.2266 7.30469 13.2031 7.44531C12.875 7.28125 12.5 7.14062 12.1016 7.07031C12.1016 7.07031 12.1016 7.04688 12.1016 7.02344V6.95312C12.1016 5.85156 11.3281 4.89062 10.2266 4.67969C9.42969 4.53906 8.60938 4.79688 8.07031 5.40625L7.64844 5.875C7.64844 5.89844 7.64844 5.89844 7.625 5.92188C7.53125 6.01562 7.39062 6.08594 7.22656 6.08594C7.08594 6.08594 6.94531 6.01562 6.85156 5.92188C6.82812 5.89844 6.82812 5.89844 6.82812 5.875L6.40625 5.40625C5.86719 4.79688 5.04688 4.53906 4.25 4.67969C3.14844 4.89062 2.375 5.85156 2.375 6.95312V7.02344C2.375 7.70312 2.63281 8.33594 3.125 8.78125L7.25 12.6016L7.4375 12.4141C7.57812 12.7891 7.74219 13.1406 7.95312 13.4688V13.4922C7.76562 13.6562 7.50781 13.7734 7.25 13.7734C6.96875 13.7734 6.73438 13.6562 6.52344 13.4922ZM8 11.125C8 9.92969 8.63281 8.82812 9.6875 8.21875C10.7188 7.60938 12.0078 7.60938 13.0625 8.21875C14.0938 8.82812 14.75 9.92969 14.75 11.125C14.75 12.3438 14.0938 13.4453 13.0625 14.0547C12.0078 14.6641 10.7188 14.6641 9.6875 14.0547C8.63281 13.4453 8 12.3438 8 11.125ZM12.9453 10.1172C12.8047 9.97656 12.5469 9.97656 12.4062 10.1172L11 11.5469L10.3203 10.8672C10.1797 10.7266 9.92188 10.7266 9.78125 10.8672C9.64062 11.0078 9.64062 11.2656 9.78125 11.4062L10.7188 12.3438C10.8594 12.4844 11.1172 12.4844 11.2578 12.3438L12.9453 10.6562C13.0859 10.5156 13.0859 10.2578 12.9453 10.1172Z" fill="#2CD046"/>
</svg>
